<svg xmlns="http://www.w3.org/2000/svg" viewBox="0 0 400 400">
  <defs>
    <linearGradient id="g5" x1="0%" y1="0%" x2="100%" y2="100%">
      <stop offset="0%" style="stop-color:#6366f1"/>
      <stop offset="100%" style="stop-color:#8b5cf6"/>
    </linearGradient>
  </defs>
  <rect width="400" height="400" fill="url(#g5)" rx="24"/>
  <rect x="110" y="100" width="180" height="230" rx="10" fill="white" opacity="0.15"/>
  <rect x="125" y="120" width="120" height="8" rx="4" fill="white" opacity="0.9"/>
  <rect x="125" y="140" width="90" height="5" rx="3" fill="white" opacity="0.5"/>
  <rect x="125" y="155" width="140" height="5" rx="3" fill="white" opacity="0.5"/>
  <rect x="125" y="170" width="110" height="5" rx="3" fill="white" opacity="0.5"/>
  <rect x="125" y="195" width="140" height="3" rx="1" fill="white" opacity="0.3"/>
  <rect x="125" y="205" width="130" height="3" rx="1" fill="white" opacity="0.3"/>
  <rect x="125" y="215" width="140" height="3" rx="1" fill="white" opacity="0.3"/>
  <circle cx="310" cy="140" r="35" fill="white" opacity="0.2"/>
  <path d="M295 140 L308 153 L325 128" stroke="white" stroke-width="4" fill="none" stroke-linecap="round" stroke-linejoin="round"/>
  <text x="200" y="355" font-family="Georgia, serif" font-size="28" font-weight="700" fill="white" text-anchor="middle">WIPPEROZ</text>
  <text x="200" y="378" font-family="Georgia, serif" font-size="11" fill="white" opacity="0.7" text-anchor="middle" letter-spacing="3">CAREER PLATFORM</text>
</svg>