<svg xmlns="http://www.w3.org/2000/svg" viewBox="0 0 400 400">
  <defs>
    <linearGradient id="g6" x1="0%" y1="0%" x2="100%" y2="100%">
      <stop offset="0%" style="stop-color:#ff6b00"/>
      <stop offset="100%" style="stop-color:#ff9500"/>
    </linearGradient>
  </defs>
  <rect width="400" height="400" fill="#1a0a00" rx="24"/>
  <rect x="100" y="100" width="200" height="160" rx="10" fill="url(#g6)" opacity="0.15" stroke="#ff6b00" stroke-width="2"/>
  <rect x="100" y="100" width="200" height="35" rx="10" fill="url(#g6)"/>
  <rect x="100" y="123" width="200" height="12" fill="url(#g6)"/>
  <text x="200" y="124" font-family="monospace" font-size="12" fill="white" text-anchor="middle" font-weight="700">LEADS</text>
  <circle cx="130" cy="165" r="12" fill="#ff6b00" opacity="0.7"/>
  <rect x="150" y="158" width="80" height="6" rx="3" fill="#ff6b00" opacity="0.5"/>
  <rect x="150" y="170" width="60" height="4" rx="2" fill="#ff6b00" opacity="0.3"/>
  <circle cx="130" cy="205" r="12" fill="#ff9500" opacity="0.7"/>
  <rect x="150" y="198" width="100" height="6" rx="3" fill="#ff9500" opacity="0.5"/>
  <rect x="150" y="210" width="70" height="4" rx="2" fill="#ff9500" opacity="0.3"/>
  <circle cx="130" cy="245" r="12" fill="#ffb700" opacity="0.7"/>
  <rect x="150" y="238" width="90" height="6" rx="3" fill="#ffb700" opacity="0.5"/>
  <text x="200" y="320" font-family="'Arial Black', sans-serif" font-size="24" font-weight="900" fill="#ff6b00" text-anchor="middle">LEADBOXER</text>
  <text x="200" y="348" font-family="Arial" font-size="11" fill="#ff9500" opacity="0.7" text-anchor="middle" letter-spacing="2">B2B INTELLIGENCE</text>
</svg>