<svg xmlns="http://www.w3.org/2000/svg" viewBox="0 0 400 400">
  <defs>
    <linearGradient id="g8" x1="0%" y1="0%" x2="100%" y2="100%">
      <stop offset="0%" style="stop-color:#1e1030"/>
      <stop offset="100%" style="stop-color:#2d1b4e"/>
    </linearGradient>
    <filter id="glow8"><feGaussianBlur stdDeviation="2" result="b"/><feMerge><feMergeNode in="b"/><feMergeNode in="SourceGraphic"/></feMerge></filter>
  </defs>
  <rect width="400" height="400" fill="url(#g8)" rx="24"/>
  <circle cx="200" cy="170" r="80" fill="none" stroke="#a855f7" stroke-width="3" opacity="0.5" filter="url(#glow8)"/>
  <circle cx="200" cy="170" r="55" fill="none" stroke="#c084fc" stroke-width="2" opacity="0.6"/>
  <circle cx="200" cy="170" r="30" fill="#7c3aed" opacity="0.4"/>
  <circle cx="200" cy="170" r="12" fill="#a855f7" filter="url(#glow8)"/>
  <circle cx="200" cy="90" r="8" fill="#c084fc"/>
  <circle cx="270" cy="130" r="8" fill="#a855f7"/>
  <circle cx="270" cy="210" r="8" fill="#c084fc"/>
  <circle cx="200" cy="250" r="8" fill="#a855f7"/>
  <circle cx="130" cy="210" r="8" fill="#c084fc"/>
  <circle cx="130" cy="130" r="8" fill="#a855f7"/>
  <line x1="200" y1="90" x2="200" y2="140" stroke="#7c3aed" stroke-width="1.5" opacity="0.7"/>
  <line x1="270" y1="130" x2="230" y2="155" stroke="#7c3aed" stroke-width="1.5" opacity="0.7"/>
  <line x1="270" y1="210" x2="230" y2="185" stroke="#7c3aed" stroke-width="1.5" opacity="0.7"/>
  <line x1="200" y1="250" x2="200" y2="200" stroke="#7c3aed" stroke-width="1.5" opacity="0.7"/>
  <line x1="130" y1="210" x2="170" y2="185" stroke="#7c3aed" stroke-width="1.5" opacity="0.7"/>
  <line x1="130" y1="130" x2="170" y2="155" stroke="#7c3aed" stroke-width="1.5" opacity="0.7"/>
  <text x="200" y="325" font-family="Georgia, serif" font-size="26" font-weight="700" fill="#c084fc" text-anchor="middle">MINDVAULTS</text>
  <text x="200" y="353" font-family="Georgia, serif" font-size="11" fill="#a855f7" opacity="0.7" text-anchor="middle" letter-spacing="3">KNOWLEDGE INTELLIGENCE</text>
</svg>