<svg xmlns="http://www.w3.org/2000/svg" viewBox="0 0 400 400">
  <defs>
    <linearGradient id="g13" x1="0%" y1="0%" x2="100%" y2="100%">
      <stop offset="0%" style="stop-color:#1a1a2e"/>
      <stop offset="100%" style="stop-color:#16213e"/>
    </linearGradient>
  </defs>
  <rect width="400" height="400" fill="url(#g13)" rx="24"/>
  <circle cx="200" cy="90" r="35" fill="#4285f4"/>
  <text x="200" y="98" font-size="24" text-anchor="middle">G</text>
  <text x="200" y="152" font-size="26" text-anchor="middle">⭐⭐⭐⭐⭐</text>
  <path d="M80 180 Q200 160 320 180 Q310 220 200 210 Q90 220 80 180Z" fill="#fbbf24" opacity="0.15" stroke="#fbbf24" stroke-width="1"/>
  <rect x="110" y="200" width="180" height="60" rx="8" fill="#1e293b" stroke="#fbbf24" stroke-width="1" opacity="0.8"/>
  <rect x="120" y="212" width="160" height="6" rx="3" fill="#fbbf24" opacity="0.6"/>
  <rect x="120" y="225" width="130" height="4" rx="2" fill="#94a3b8" opacity="0.5"/>
  <rect x="120" y="235" width="145" height="4" rx="2" fill="#94a3b8" opacity="0.4"/>
  <path d="M120 270 L140 250 L160 270 L180 240 L200 265 L220 245 L240 270 L260 255 L280 270" stroke="#fbbf24" stroke-width="2.5" fill="none" stroke-linecap="round" stroke-linejoin="round"/>
  <text x="200" y="325" font-family="'Arial', sans-serif" font-size="20" font-weight="700" fill="#fbbf24" text-anchor="middle">BEWERTUNGSFLOW</text>
  <text x="200" y="352" font-family="Arial" font-size="11" fill="#94a3b8" text-anchor="middle" letter-spacing="2">REVIEW AUTOMATION</text>
</svg>