<svg xmlns="http://www.w3.org/2000/svg" viewBox="0 0 400 400">
  <defs>
    <linearGradient id="g15" x1="0%" y1="100%" x2="100%" y2="0%">
      <stop offset="0%" style="stop-color:#dc2626"/>
      <stop offset="50%" style="stop-color:#f97316"/>
      <stop offset="100%" style="stop-color:#fbbf24"/>
    </linearGradient>
  </defs>
  <rect width="400" height="400" fill="#0c0a00" rx="24"/>
  <path d="M200 80 C210 110 240 115 235 145 C230 170 210 175 215 200 C218 215 230 220 225 240 C218 265 200 270 200 270 C200 270 182 265 175 240 C170 220 182 215 185 200 C190 175 170 170 165 145 C160 115 190 110 200 80Z" fill="url(#g15)" opacity="0.9"/>
  <path d="M200 150 C205 165 218 168 215 182 C212 192 205 194 207 205 C208 212 215 214 212 222 C208 232 200 235 200 235 C200 235 192 232 188 222 C185 214 192 212 193 205 C195 194 188 192 185 182 C182 168 195 165 200 150Z" fill="#fef08a" opacity="0.8"/>
  <text x="200" y="320" font-family="'Arial Black', sans-serif" font-size="24" font-weight="900" fill="url(#g15)" text-anchor="middle">TOOL IGNITE</text>
  <text x="200" y="350" font-family="Arial" font-size="11" fill="#f97316" opacity="0.7" text-anchor="middle" letter-spacing="3">SAAS DISCOVERY</text>
</svg>