<svg xmlns="http://www.w3.org/2000/svg" viewBox="0 0 400 400">
  <defs>
    <linearGradient id="g17" x1="0%" y1="0%" x2="100%" y2="100%">
      <stop offset="0%" style="stop-color:#050010"/>
      <stop offset="100%" style="stop-color:#1a0030"/>
    </linearGradient>
    <filter id="glow17"><feGaussianBlur stdDeviation="3" result="b"/><feMerge><feMergeNode in="b"/><feMergeNode in="SourceGraphic"/></feMerge></filter>
  </defs>
  <rect width="400" height="400" fill="url(#g17)" rx="24"/>
  <path d="M70 200 Q90 165 110 200 Q130 235 150 200 Q170 165 190 200 Q210 235 230 200 Q250 165 270 200 Q290 235 310 200 Q330 165 350 200" stroke="#c084fc" stroke-width="3.5" fill="none" filter="url(#glow17)"/>
  <path d="M70 200 Q90 175 110 200 Q130 225 150 200 Q170 175 190 200 Q210 225 230 200 Q250 175 270 200 Q290 225 310 200 Q330 175 350 200" stroke="#e879f9" stroke-width="2" fill="none" opacity="0.5"/>
  <circle cx="200" cy="200" r="8" fill="#c084fc" filter="url(#glow17)"/>
  <line x1="200" y1="200" x2="200" y2="120" stroke="#a855f7" stroke-width="2" opacity="0.5"/>
  <circle cx="200" cy="118" r="6" fill="#a855f7"/>
  <text x="200" y="300" font-family="'Trebuchet MS', sans-serif" font-size="30" font-weight="700" fill="#c084fc" text-anchor="middle" filter="url(#glow17)">Somio AI</text>
  <text x="200" y="330" font-family="'Trebuchet MS'" font-size="11" fill="#a855f7" text-anchor="middle" letter-spacing="3" opacity="0.8">AI MUSIC CREATION</text>
</svg>