<svg xmlns="http://www.w3.org/2000/svg" viewBox="0 0 400 400">
  <defs>
    <linearGradient id="g19" x1="0%" y1="0%" x2="100%" y2="100%">
      <stop offset="0%" style="stop-color:#0f172a"/>
      <stop offset="100%" style="stop-color:#1e293b"/>
    </linearGradient>
  </defs>
  <rect width="400" height="400" fill="url(#g19)" rx="24"/>
  <rect x="120" y="80" width="160" height="210" rx="6" fill="#1e293b" stroke="#334155" stroke-width="2"/>
  <rect x="135" y="100" width="130" height="8" rx="2" fill="#64748b"/>
  <rect x="135" y="120" width="120" height="5" rx="2" fill="#475569" opacity="0.7"/>
  <rect x="135" y="132" width="130" height="5" rx="2" fill="#475569" opacity="0.7"/>
  <rect x="135" y="144" width="110" height="5" rx="2" fill="#475569" opacity="0.7"/>
  <rect x="135" y="165" width="130" height="5" rx="2" fill="#ef4444" opacity="0.7"/>
  <rect x="135" y="177" width="120" height="5" rx="2" fill="#ef4444" opacity="0.5"/>
  <rect x="135" y="200" width="130" height="5" rx="2" fill="#22c55e" opacity="0.7"/>
  <rect x="135" y="212" width="100" height="5" rx="2" fill="#22c55e" opacity="0.5"/>
  <rect x="135" y="234" width="130" height="5" rx="2" fill="#f59e0b" opacity="0.7"/>
  <rect x="135" y="246" width="115" height="5" rx="2" fill="#f59e0b" opacity="0.5"/>
  <circle cx="290" cy="195" r="35" fill="#1a2744" stroke="#3b82f6" stroke-width="3"/>
  <text x="290" y="191" font-family="serif" font-size="22" fill="#3b82f6" text-anchor="middle">§</text>
  <text x="290" y="210" font-family="serif" font-size="10" fill="#60a5fa" text-anchor="middle">AI</text>
  <text x="200" y="330" font-family="Georgia, serif" font-size="28" font-weight="700" fill="#e2e8f0" text-anchor="middle">Clausify</text>
  <text x="200" y="358" font-family="Georgia" font-size="11" fill="#64748b" text-anchor="middle" letter-spacing="3">CONTRACT INTELLIGENCE</text>
</svg>