<svg xmlns="http://www.w3.org/2000/svg" viewBox="0 0 400 400">
  <defs>
    <linearGradient id="g23" x1="0%" y1="0%" x2="100%" y2="100%">
      <stop offset="0%" style="stop-color:#dc2626"/>
      <stop offset="100%" style="stop-color:#b91c1c"/>
    </linearGradient>
  </defs>
  <rect width="400" height="400" fill="#fef2f2" rx="24"/>
  <rect x="90" y="90" width="100" height="130" rx="8" fill="white" stroke="#dc2626" stroke-width="3"/>
  <polygon points="170,90 190,90 190,110 170,110" fill="#dc2626"/>
  <polygon points="170,90 190,110 170,110" fill="#b91c1c"/>
  <text x="140" y="128" font-family="Arial" font-size="18" font-weight="700" fill="#dc2626" text-anchor="middle">PDF</text>
  <rect x="100" y="145" width="80" height="5" rx="2" fill="#fca5a5"/>
  <rect x="100" y="158" width="70" height="5" rx="2" fill="#fca5a5"/>
  <rect x="100" y="171" width="80" height="5" rx="2" fill="#fca5a5"/>
  <path d="M200 155 L230 140 L230 170 Z" fill="#dc2626"/>
  <path d="M200 155 L230 170 L230 140 Z" fill="#b91c1c" opacity="0.5"/>
  <circle cx="270" cy="155" r="50" fill="none" stroke="#dc2626" stroke-width="3"/>
  <path d="M248 155 Q265 125 285 155" fill="none" stroke="#dc2626" stroke-width="2.5"/>
  <path d="M248 155 Q265 185 285 155" fill="none" stroke="#dc2626" stroke-width="2.5"/>
  <line x1="243" y1="142" x2="293" y2="142" stroke="#dc2626" stroke-width="2"/>
  <line x1="243" y1="168" x2="293" y2="168" stroke="#dc2626" stroke-width="2"/>
  <text x="200" y="320" font-family="Arial" font-size="20" font-weight="700" fill="#dc2626" text-anchor="middle">PDF TRANSLATOR</text>
  <text x="200" y="346" font-family="Arial" font-size="14" font-weight="700" fill="#991b1b" text-anchor="middle">PRO</text>
</svg>