<svg xmlns="http://www.w3.org/2000/svg" viewBox="0 0 400 400">
  <defs>
    <linearGradient id="g24" x1="0%" y1="0%" x2="100%" y2="100%">
      <stop offset="0%" style="stop-color:#0369a1"/>
      <stop offset="100%" style="stop-color:#075985"/>
    </linearGradient>
  </defs>
  <rect width="400" height="400" fill="#f0f9ff" rx="24"/>
  <rect x="110" y="80" width="180" height="230" rx="8" fill="white" filter="drop-shadow(2px 4px 16px rgba(3,105,161,0.15))" stroke="#e0f2fe" stroke-width="1"/>
  <rect x="110" y="80" width="180" height="55" rx="8" fill="url(#g24)"/>
  <rect x="110" y="118" width="180" height="17" fill="url(#g24)"/>
  <circle cx="145" cy="107" r="18" fill="white" opacity="0.2"/>
  <rect x="170" y="98" width="100" height="7" rx="3" fill="white" opacity="0.8"/>
  <rect x="170" y="110" width="80" height="5" rx="2" fill="white" opacity="0.5"/>
  <rect x="125" y="152" width="150" height="5" rx="2" fill="#bae6fd"/>
  <rect x="125" y="165" width="140" height="5" rx="2" fill="#e0f2fe"/>
  <rect x="125" y="178" width="150" height="5" rx="2" fill="#bae6fd"/>
  <rect x="125" y="200" width="60" height="6" rx="2" fill="#0369a1" opacity="0.7"/>
  <rect x="125" y="215" width="150" height="4" rx="2" fill="#e0f2fe"/>
  <rect x="125" y="227" width="130" height="4" rx="2" fill="#e0f2fe"/>
  <circle cx="315" cy="130" r="30" fill="#0369a1" opacity="0.15" stroke="#0369a1" stroke-width="2"/>
  <text x="315" y="135" font-family="Arial" font-size="14" font-weight="700" fill="#0369a1" text-anchor="middle">ATS</text>
  <path d="M295 116 L303 128 L320 108" stroke="#0369a1" stroke-width="3" fill="none" stroke-linecap="round" stroke-linejoin="round"/>
  <text x="200" y="345" font-family="'Arial Black', sans-serif" font-size="28" font-weight="900" fill="#0369a1" text-anchor="middle">MOR</text>
  <text x="200" y="370" font-family="Arial" font-size="11" fill="#075985" text-anchor="middle" letter-spacing="3">AI RESUME BUILDER</text>
</svg>