<svg xmlns="http://www.w3.org/2000/svg" viewBox="0 0 400 400">
  <defs>
    <linearGradient id="g27" x1="0%" y1="0%" x2="0%" y2="100%">
      <stop offset="0%" style="stop-color:#0ea5e9"/>
      <stop offset="60%" style="stop-color:#0369a1"/>
      <stop offset="100%" style="stop-color:#1e3a5f"/>
    </linearGradient>
  </defs>
  <rect width="400" height="400" fill="url(#g27)" rx="24"/>
  <circle cx="320" cy="90" r="25" fill="#fde68a" opacity="0.9"/>
  <ellipse cx="80" cy="140" rx="55" ry="25" fill="white" opacity="0.7"/>
  <ellipse cx="60" cy="148" rx="35" ry="18" fill="white" opacity="0.7"/>
  <ellipse cx="105" cy="148" rx="35" ry="18" fill="white" opacity="0.7"/>
  <path d="M90 220 L200 190 L310 220" stroke="white" stroke-width="1" fill="none" opacity="0.3"/>
  <ellipse cx="200" cy="215" rx="110" ry="22" fill="#93c5fd" opacity="0.3"/>
  <path d="M120 215 L130 200 L200 185 L270 200 L280 215 L270 215 L260 202 L200 188 L140 202 L130 215Z" fill="#60a5fa" opacity="0.8"/>
  <ellipse cx="200" cy="215" rx="45" ry="10" fill="#3b82f6"/>
  <line x1="170" y1="200" x2="160" y2="140" stroke="#bfdbfe" stroke-width="1.5" opacity="0.7" stroke-dasharray="4,3"/>
  <line x1="230" y1="200" x2="235" y2="140" stroke="#bfdbfe" stroke-width="1.5" opacity="0.7" stroke-dasharray="4,3"/>
  <text x="200" y="310" font-family="'Arial Black', sans-serif" font-size="24" font-weight="900" fill="white" text-anchor="middle">SKYCHART</text>
  <text x="200" y="340" font-family="Arial" font-size="12" fill="#bae6fd" text-anchor="middle" letter-spacing="3">AIRLINE EXECUTIVE</text>
  <text x="200" y="365" font-family="Arial" font-size="11" fill="#93c5fd" text-anchor="middle" opacity="0.6">STRATEGY SIMULATION</text>
</svg>