<svg xmlns="http://www.w3.org/2000/svg" viewBox="0 0 400 400">
  <defs>
    <linearGradient id="g30" x1="0%" y1="0%" x2="100%" y2="100%">
      <stop offset="0%" style="stop-color:#14532d"/>
      <stop offset="100%" style="stop-color:#166534"/>
    </linearGradient>
  </defs>
  <rect width="400" height="400" fill="url(#g30)" rx="24"/>
  <rect x="120" y="90" width="160" height="210" rx="8" fill="#15803d" opacity="0.3" stroke="#22c55e" stroke-width="2"/>
  <rect x="130" y="105" width="140" height="8" rx="3" fill="#4ade80" opacity="0.8"/>
  <rect x="130" y="125" width="120" height="5" rx="2" fill="#22c55e" opacity="0.5"/>
  <rect x="130" y="138" width="140" height="5" rx="2" fill="#22c55e" opacity="0.5"/>
  <rect x="130" y="160" width="60" height="6" rx="2" fill="#4ade80" opacity="0.7"/>
  <rect x="130" y="175" width="140" height="4" rx="2" fill="#22c55e" opacity="0.4"/>
  <rect x="130" y="187" width="125" height="4" rx="2" fill="#22c55e" opacity="0.4"/>
  <rect x="130" y="210" width="60" height="6" rx="2" fill="#4ade80" opacity="0.7"/>
  <rect x="130" y="225" width="140" height="4" rx="2" fill="#22c55e" opacity="0.4"/>
  <rect x="130" y="237" width="120" height="4" rx="2" fill="#22c55e" opacity="0.4"/>
  <circle cx="300" cy="145" r="28" fill="#166534" stroke="#4ade80" stroke-width="2.5"/>
  <path d="M288 145 L297 155 L315 130" stroke="#4ade80" stroke-width="3" fill="none" stroke-linecap="round" stroke-linejoin="round"/>
  <text x="200" y="330" font-family="'Trebuchet MS', sans-serif" font-size="28" font-weight="700" fill="#4ade80" text-anchor="middle">CVoria</text>
  <text x="200" y="358" font-family="'Trebuchet MS'" font-size="11" fill="#22c55e" text-anchor="middle" letter-spacing="3">AI CV OPTIMIZER</text>
</svg>