<svg xmlns="http://www.w3.org/2000/svg" viewBox="0 0 400 400">
  <defs>
    <linearGradient id="g33" x1="0%" y1="0%" x2="100%" y2="100%">
      <stop offset="0%" style="stop-color:#1e3a5f"/>
      <stop offset="100%" style="stop-color:#0f2040"/>
    </linearGradient>
  </defs>
  <rect width="400" height="400" fill="url(#g33)" rx="24"/>
  <rect x="80" y="110" width="240" height="170" rx="8" fill="#0f2040" stroke="#1d4ed8" stroke-width="2"/>
  <rect x="95" y="125" width="70" height="50" rx="4" fill="#1d4ed8" opacity="0.3"/>
  <rect x="175" y="125" width="70" height="50" rx="4" fill="#2563eb" opacity="0.3"/>
  <rect x="255" y="125" width="50" height="50" rx="4" fill="#3b82f6" opacity="0.3"/>
  <text x="130" y="145" font-family="monospace" font-size="9" fill="#93c5fd" text-anchor="middle">ZONE A</text>
  <text x="130" y="157" font-family="monospace" font-size="11" fill="#60a5fa" text-anchor="middle">240</text>
  <text x="210" y="145" font-family="monospace" font-size="9" fill="#93c5fd" text-anchor="middle">ZONE B</text>
  <text x="210" y="157" font-family="monospace" font-size="11" fill="#60a5fa" text-anchor="middle">185</text>
  <text x="280" y="145" font-family="monospace" font-size="9" fill="#93c5fd" text-anchor="middle">ZONE C</text>
  <text x="280" y="157" font-family="monospace" font-size="11" fill="#60a5fa" text-anchor="middle">98</text>
  <rect x="95" y="190" width="210" height="3" rx="1" fill="#1d4ed8" opacity="0.3"/>
  <rect x="95" y="205" width="210" height="28" rx="4" fill="#1d4ed8" opacity="0.2"/>
  <rect x="95" y="240" width="210" height="28" rx="4" fill="#1d4ed8" opacity="0.15"/>
  <rect x="100" y="210" width="200" height="8" rx="2" fill="#3b82f6" opacity="0.5"/>
  <rect x="100" y="247" width="140" height="8" rx="2" fill="#2563eb" opacity="0.4"/>
  <text x="200" y="330" font-family="'Arial Black', sans-serif" font-size="28" font-weight="900" fill="#60a5fa" text-anchor="middle">SKUNO</text>
  <text x="200" y="358" font-family="Arial" font-size="11" fill="#3b82f6" text-anchor="middle" letter-spacing="3">WAREHOUSE AI · D365</text>
</svg>