<svg xmlns="http://www.w3.org/2000/svg" viewBox="0 0 400 400">
  <defs>
    <linearGradient id="g34" x1="0%" y1="0%" x2="100%" y2="100%">
      <stop offset="0%" style="stop-color:#fffbeb"/>
      <stop offset="100%" style="stop-color:#fef3c7"/>
    </linearGradient>
  </defs>
  <rect width="400" height="400" fill="url(#g34)" rx="24"/>
  <rect x="100" y="85" width="200" height="220" rx="8" fill="white" stroke="#fbbf24" stroke-width="3" filter="drop-shadow(2px 4px 12px rgba(251,191,36,0.2))"/>
  <line x1="100" y1="120" x2="300" y2="120" stroke="#fef3c7" stroke-width="2"/>
  <line x1="100" y1="150" x2="300" y2="150" stroke="#fef3c7" stroke-width="2"/>
  <line x1="100" y1="180" x2="300" y2="180" stroke="#fef3c7" stroke-width="2"/>
  <line x1="100" y1="210" x2="300" y2="210" stroke="#fef3c7" stroke-width="2"/>
  <line x1="100" y1="240" x2="300" y2="240" stroke="#fef3c7" stroke-width="2"/>
  <line x1="100" y1="270" x2="300" y2="270" stroke="#fef3c7" stroke-width="2"/>
  <text x="125" y="110" font-family="'Comic Sans MS', cursive" font-size="13" fill="#92400e">Name: ___________</text>
  <text x="125" y="140" font-family="'Comic Sans MS', cursive" font-size="12" fill="#78350f">1. What is 7 × 8?</text>
  <text x="125" y="168" font-family="'Comic Sans MS', cursive" font-size="11" fill="#a16207">○ 54  ○ 56  ○ 58</text>
  <text x="125" y="198" font-family="'Comic Sans MS', cursive" font-size="12" fill="#78350f">2. Spell "necessary":</text>
  <text x="125" y="230" font-family="'Comic Sans MS', cursive" font-size="11" fill="#a16207">___________________</text>
  <path d="M285 80 L295 95 L282 100 L288 85Z" fill="#fbbf24"/>
  <rect x="285" y="60" width="8" height="25" rx="2" fill="#fbbf24" opacity="0.6"/>
  <text x="200" y="338" font-family="Georgia, serif" font-size="26" font-weight="700" fill="#d97706" text-anchor="middle">Worksheetly</text>
  <text x="200" y="365" font-family="Georgia" font-size="11" fill="#b45309" text-anchor="middle" letter-spacing="3">AI WORKSHEET GENERATOR</text>
</svg>