<svg xmlns="http://www.w3.org/2000/svg" viewBox="0 0 400 400">
  <rect width="400" height="400" fill="#0f0a1e" rx="24"/>
  <rect x="70" y="100" width="120" height="90" rx="6" fill="#1a103a" stroke="#7c3aed" stroke-width="2"/>
  <rect x="210" y="100" width="120" height="90" rx="6" fill="#1a103a" stroke="#0891b2" stroke-width="2"/>
  <rect x="70" y="205" width="120" height="90" rx="6" fill="#1a103a" stroke="#059669" stroke-width="2"/>
  <rect x="210" y="205" width="120" height="90" rx="6" fill="#1a103a" stroke="#dc2626" stroke-width="2"/>
  <text x="82" y="118" font-family="monospace" font-size="9" fill="#a78bfa">GPT-4o</text>
  <polyline points="85,180 95,165 105,170 115,155 125,163 135,148 155,162 175,148" stroke="#7c3aed" stroke-width="1.5" fill="none"/>
  <text x="222" y="118" font-family="monospace" font-size="9" fill="#67e8f9">Claude</text>
  <polyline points="225,180 235,155 245,168 255,145 265,158 285,140 315,155" stroke="#0891b2" stroke-width="1.5" fill="none"/>
  <text x="82" y="223" font-family="monospace" font-size="9" fill="#6ee7b7">Gemini</text>
  <polyline points="85,285 100,270 115,278 130,260 150,272 165,255 185,268" stroke="#059669" stroke-width="1.5" fill="none"/>
  <text x="222" y="223" font-family="monospace" font-size="9" fill="#fca5a5">Llama</text>
  <polyline points="225,285 240,268 255,275 268,258 280,270 295,252 325,265" stroke="#dc2626" stroke-width="1.5" fill="none"/>
  <text x="200" y="335" font-family="'Arial Black', sans-serif" font-size="22" font-weight="900" fill="#c4b5fd" text-anchor="middle">KORMADESK</text>
  <text x="200" y="360" font-family="Arial" font-size="11" fill="#7c3aed" text-anchor="middle" letter-spacing="2">4-MODEL TRADE ANALYSIS</text>
</svg>