<svg xmlns="http://www.w3.org/2000/svg" viewBox="0 0 400 400">
  <defs>
    <linearGradient id="g39" x1="0%" y1="0%" x2="100%" y2="100%">
      <stop offset="0%" style="stop-color:#0f172a"/>
      <stop offset="100%" style="stop-color:#1e293b"/>
    </linearGradient>
  </defs>
  <rect width="400" height="400" fill="url(#g39)" rx="24"/>
  <rect x="80" y="100" width="80" height="165" rx="6" fill="#1e293b" stroke="#3b82f6" stroke-width="2"/>
  <rect x="175" y="100" width="80" height="165" rx="6" fill="#1e293b" stroke="#f59e0b" stroke-width="2"/>
  <rect x="270" y="100" width="60" height="165" rx="6" fill="#1e293b" stroke="#22c55e" stroke-width="2"/>
  <text x="120" y="122" font-family="monospace" font-size="10" fill="#3b82f6" text-anchor="middle">LEADS</text>
  <text x="215" y="122" font-family="monospace" font-size="10" fill="#f59e0b" text-anchor="middle">QUALIFY</text>
  <text x="300" y="122" font-family="monospace" font-size="10" fill="#22c55e" text-anchor="middle">CLOSE</text>
  <rect x="90" y="135" width="60" height="35" rx="4" fill="#3b82f6" opacity="0.3"/>
  <rect x="90" y="180" width="60" height="35" rx="4" fill="#3b82f6" opacity="0.3"/>
  <rect x="90" y="225" width="60" height="25" rx="4" fill="#3b82f6" opacity="0.2"/>
  <rect x="185" y="135" width="60" height="35" rx="4" fill="#f59e0b" opacity="0.3"/>
  <rect x="185" y="180" width="60" height="25" rx="4" fill="#f59e0b" opacity="0.2"/>
  <rect x="280" y="135" width="40" height="35" rx="4" fill="#22c55e" opacity="0.4"/>
  <text x="200" y="320" font-family="'Arial Black', sans-serif" font-size="20" font-weight="900" fill="#e2e8f0" text-anchor="middle">PROSPECT B2B</text>
  <text x="200" y="350" font-family="Arial" font-size="11" fill="#64748b" text-anchor="middle" letter-spacing="2">SALES PIPELINE CRM</text>
</svg>